<?xml version="1.0" encoding="utf-8"?>
<!-- Generator: Adobe Illustrator 16.0.0, SVG Export Plug-In . SVG Version: 6.00 Build 0)  -->
<!DOCTYPE svg PUBLIC "-//W3C//DTD SVG 1.1//EN" "http://www.w3.org/Graphics/SVG/1.1/DTD/svg11.dtd">
<svg version="1.1" id="layer_1" xmlns="http://www.w3.org/2000/svg" xmlns:xlink="http://www.w3.org/1999/xlink" x="0px" y="0px"
	 width="16px" height="16px" viewBox="0 0 16 16" enable-background="new 0 0 16 16" xml:space="preserve">
<path id="canvas" fill="#C5C5C5" fill-opacity="0" d="M1.004-0.5h16v16h-16V-0.5z"/>
<g>
	<path fill="#C5C5C5" d="M14.365,3.914h-3.813L1.104,3.895v9.944c0,0.32,0.239,0.583,0.531,0.583h12.73
		c0.294,0,0.529-0.263,0.529-0.583V4.498C14.896,4.175,14.659,3.914,14.365,3.914z M11.018,8.93l-4.432,4.277
		c-0.042,0.029-0.088,0.039-0.138,0.029c-0.024-0.004-0.041-0.014-0.051-0.027c-0.08-0.041-0.101-0.096-0.063-0.164l1.198-3.218
		L5.078,9.359C5.017,9.35,4.979,9.316,4.964,9.264c-0.027-0.057-0.011-0.107,0.049-0.16L9.736,4.88
		c0.062-0.063,0.119-0.065,0.17-0.005c0.06,0.023,0.078,0.078,0.063,0.163L8.771,8.256l2.162,0.412
		c0.062,0.012,0.101,0.045,0.113,0.098C11.051,8.816,11.041,8.871,11.018,8.93z"/>
	<path fill="#C5C5C5" d="M8.031,2.063H1.538c-0.238,0-0.434,0.205-0.434,0.458v0.771l7.527,0.014L8.031,2.063z"/>
</g>
</svg>
