<?xml version="1.0" encoding="utf-8"?>
<!-- Generator: Adobe Illustrator 16.0.0, SVG Export Plug-In . SVG Version: 6.00 Build 0)  -->
<!DOCTYPE svg PUBLIC "-//W3C//DTD SVG 1.1//EN" "http://www.w3.org/Graphics/SVG/1.1/DTD/svg11.dtd">
<svg version="1.1" id="Layer_1" xmlns="http://www.w3.org/2000/svg" xmlns:xlink="http://www.w3.org/1999/xlink" x="0px" y="0px"
	 width="16px" height="16px" viewBox="0 0 16 16" enable-background="new 0 0 16 16" xml:space="preserve">
<g>
	<path fill="#C5C5C5" d="M6.473,10.85l0.981,1.423l0.967-0.007l0.547,0.641v0.622c0.245,0.016,0.729-0.007,0.974-0.007
		c2.484,0,4.472-0.78,4.472-1.773V4.011c0-0.923-2.484-1.845-4.969-1.845c-2.483,0-4.612,0.922-4.612,1.845v3.49h2.119l0.564,0.73
		v1.69L6.473,10.85z M9.658,4.579c-1.773,0-3.193-0.284-3.193-0.852s1.42-0.852,3.193-0.852c1.775,0,3.195,0.426,3.195,0.852
		C12.854,4.153,11.434,4.579,9.658,4.579z"/>
	<path id="icon_x5F_bg" fill="#C5C5C5" d="M8.215,12.435H7.161l-1.359-2.04h0.884l0.51-0.511v-1.53l-0.51-0.51H3.625l-0.51,0.51
		v1.53l0.51,0.511h0.883l-1.359,2.04H2.095l-0.51,0.509v1.532l0.51,0.508h2.04l0.511-0.508v-1.532l-0.511-0.509H3.763l1.359-2.04
		h0.066l1.36,2.04H6.175l-0.509,0.509v1.532l0.509,0.508h2.04l0.51-0.508v-1.532L8.215,12.435z M4.135,12.943v1.532h-2.04v-1.532
		H4.135z M3.625,9.884v-1.53h3.061v1.53H3.625z M8.215,14.476h-2.04v-1.532h2.04V14.476z"/>
</g>
</svg>
