<?xml version="1.0" encoding="utf-8"?>
<!-- Generator: Adobe Illustrator 16.0.0, SVG Export Plug-In . SVG Version: 6.00 Build 0)  -->
<!DOCTYPE svg PUBLIC "-//W3C//DTD SVG 1.1//EN" "http://www.w3.org/Graphics/SVG/1.1/DTD/svg11.dtd">
<svg version="1.1" id="Layer_1" xmlns="http://www.w3.org/2000/svg" xmlns:xlink="http://www.w3.org/1999/xlink" x="0px" y="0px"
	 width="16px" height="16px" viewBox="-4 -4 20 20" enable-background="new -4 -4 20 20" xml:space="preserve">
<g>
	<g id="iconBg_68_">
		<g>
			<rect x="7.9" y="7.9" fill="#C5C5C5" width="1.1" height="3.4"/>
			<path fill="#656565" d="M7.6,0C4.1,0,1.1,1.3,1.1,2.6v10.8C1.1,14.8,4.8,16,8.3,16s6.3-1.1,6.3-2.5V2.6C14.6,1.3,11.1,0,7.6,0z
				 M7.9,1c2.5,0,4.5,0.6,4.5,1.2c0,0.6-2,1.2-4.5,1.2C5.4,3.4,3.4,3,3.4,2.2C3.4,1.4,5.4,1,7.9,1z"/>
		</g>
	</g>
</g>
</svg>
